<?xml version="1.0" encoding="utf-8"?>
<!-- Generator: Adobe Illustrator 25.0.1, SVG Export Plug-In . SVG Version: 6.00 Build 0)  -->
<svg version="1.1" xmlns="http://www.w3.org/2000/svg" xmlns:xlink="http://www.w3.org/1999/xlink" x="0px" y="0px"
	 viewBox="0 0 504.57 351.5" style="enable-background:new 0 0 504.57 351.5;" xml:space="preserve">
<style type="text/css">
	.st0{display:none;}
	.st1{display:inline;}
	.st2{fill:#A7A8A9;}
	.st3{opacity:0.15;}
	.st4{fill:#00BC70;}
	.st5{opacity:0.5;}
	.st6{fill:#FFFFFF;}
</style>
<g id="Elipses" class="st0">
	<g class="st1">
		<path class="st2" d="M68.03,34.52c18.48,0,33.52,15.04,33.52,33.52s-15.04,33.52-33.52,33.52c-18.48,0-33.52-15.04-33.52-33.52
			S49.55,34.52,68.03,34.52 M68.03,34.02c-18.79,0-34.02,15.23-34.02,34.02s15.23,34.02,34.02,34.02s34.02-15.23,34.02-34.02
			S86.82,34.02,68.03,34.02L68.03,34.02z"/>
	</g>
	<g class="st1">
		<path class="st2" d="M141.73,34.52c18.48,0,33.52,15.04,33.52,33.52s-15.04,33.52-33.52,33.52c-18.48,0-33.52-15.04-33.52-33.52
			S123.25,34.52,141.73,34.52 M141.73,34.02c-18.79,0-34.02,15.23-34.02,34.02s15.23,34.02,34.02,34.02s34.02-15.23,34.02-34.02
			S160.52,34.02,141.73,34.02L141.73,34.02z"/>
	</g>
	<g class="st1">
		<path class="st2" d="M178.58,34.52c18.48,0,33.52,15.04,33.52,33.52s-15.04,33.52-33.52,33.52c-18.48,0-33.52-15.04-33.52-33.52
			S160.1,34.52,178.58,34.52 M178.58,34.02c-18.79,0-34.02,15.23-34.02,34.02s15.23,34.02,34.02,34.02s34.02-15.23,34.02-34.02
			S197.37,34.02,178.58,34.02L178.58,34.02z"/>
	</g>
	<g class="st1">
		<path class="st2" d="M215.43,34.52c18.48,0,33.52,15.04,33.52,33.52s-15.04,33.52-33.52,33.52c-18.48,0-33.52-15.04-33.52-33.52
			S196.95,34.52,215.43,34.52 M215.43,34.02c-18.79,0-34.02,15.23-34.02,34.02s15.23,34.02,34.02,34.02s34.02-15.23,34.02-34.02
			S234.22,34.02,215.43,34.02L215.43,34.02z"/>
	</g>
	<g class="st1">
		<path class="st2" d="M289.13,34.52c18.48,0,33.52,15.04,33.52,33.52s-15.04,33.52-33.52,33.52c-18.48,0-33.52-15.04-33.52-33.52
			S270.65,34.52,289.13,34.52 M289.13,34.02c-18.79,0-34.02,15.23-34.02,34.02s15.23,34.02,34.02,34.02s34.02-15.23,34.02-34.02
			S307.92,34.02,289.13,34.02L289.13,34.02z"/>
	</g>
	<g class="st1">
		<path class="st2" d="M362.83,34.52c18.48,0,33.52,15.04,33.52,33.52s-15.04,33.52-33.52,33.52c-18.48,0-33.52-15.04-33.52-33.52
			S344.35,34.52,362.83,34.52 M362.83,34.02c-18.79,0-34.02,15.23-34.02,34.02s15.23,34.02,34.02,34.02s34.02-15.23,34.02-34.02
			S381.62,34.02,362.83,34.02L362.83,34.02z"/>
	</g>
	<g class="st1">
		<path class="st2" d="M436.54,34.52c18.48,0,33.52,15.04,33.52,33.52s-15.04,33.52-33.52,33.52c-18.48,0-33.52-15.04-33.52-33.52
			S418.05,34.52,436.54,34.52 M436.54,34.02c-18.79,0-34.02,15.23-34.02,34.02s15.23,34.02,34.02,34.02s34.02-15.23,34.02-34.02
			S455.32,34.02,436.54,34.02L436.54,34.02z"/>
	</g>
	<g class="st1">
		<path class="st2" d="M68.03,108.22c18.48,0,33.52,15.04,33.52,33.52s-15.04,33.52-33.52,33.52c-18.48,0-33.52-15.04-33.52-33.52
			S49.55,108.22,68.03,108.22 M68.03,107.72c-18.79,0-34.02,15.23-34.02,34.02s15.23,34.02,34.02,34.02s34.02-15.23,34.02-34.02
			S86.82,107.72,68.03,107.72L68.03,107.72z"/>
	</g>
	<g class="st1">
		<path class="st2" d="M141.73,108.22c18.48,0,33.52,15.04,33.52,33.52s-15.04,33.52-33.52,33.52c-18.48,0-33.52-15.04-33.52-33.52
			S123.25,108.22,141.73,108.22 M141.73,107.72c-18.79,0-34.02,15.23-34.02,34.02s15.23,34.02,34.02,34.02s34.02-15.23,34.02-34.02
			S160.52,107.72,141.73,107.72L141.73,107.72z"/>
	</g>
	<g class="st1">
		<path class="st2" d="M215.43,108.22c18.48,0,33.52,15.04,33.52,33.52s-15.04,33.52-33.52,33.52c-18.48,0-33.52-15.04-33.52-33.52
			S196.95,108.22,215.43,108.22 M215.43,107.72c-18.79,0-34.02,15.23-34.02,34.02s15.23,34.02,34.02,34.02s34.02-15.23,34.02-34.02
			S234.22,107.72,215.43,107.72L215.43,107.72z"/>
	</g>
	<g class="st1">
		<path class="st2" d="M289.13,108.22c18.48,0,33.52,15.04,33.52,33.52s-15.04,33.52-33.52,33.52c-18.48,0-33.52-15.04-33.52-33.52
			S270.65,108.22,289.13,108.22 M289.13,107.72c-18.79,0-34.02,15.23-34.02,34.02s15.23,34.02,34.02,34.02s34.02-15.23,34.02-34.02
			S307.92,107.72,289.13,107.72L289.13,107.72z"/>
	</g>
	<g class="st1">
		<path class="st2" d="M362.83,108.22c18.48,0,33.52,15.04,33.52,33.52s-15.04,33.52-33.52,33.52c-18.48,0-33.52-15.04-33.52-33.52
			S344.35,108.22,362.83,108.22 M362.83,107.72c-18.79,0-34.02,15.23-34.02,34.02s15.23,34.02,34.02,34.02s34.02-15.23,34.02-34.02
			S381.62,107.72,362.83,107.72L362.83,107.72z"/>
	</g>
	<g class="st1">
		<path class="st2" d="M436.54,108.22c18.48,0,33.52,15.04,33.52,33.52s-15.04,33.52-33.52,33.52c-18.48,0-33.52-15.04-33.52-33.52
			S418.05,108.22,436.54,108.22 M436.54,107.72c-18.79,0-34.02,15.23-34.02,34.02s15.23,34.02,34.02,34.02s34.02-15.23,34.02-34.02
			S455.32,107.72,436.54,107.72L436.54,107.72z"/>
	</g>
	<g class="st1">
		<path class="st2" d="M68.03,181.92c18.48,0,33.52,15.04,33.52,33.52s-15.04,33.52-33.52,33.52c-18.48,0-33.52-15.04-33.52-33.52
			S49.55,181.92,68.03,181.92 M68.03,181.42c-18.79,0-34.02,15.23-34.02,34.02s15.23,34.02,34.02,34.02s34.02-15.23,34.02-34.02
			S86.82,181.42,68.03,181.42L68.03,181.42z"/>
	</g>
	<g class="st1">
		<path class="st2" d="M141.73,181.92c18.48,0,33.52,15.04,33.52,33.52s-15.04,33.52-33.52,33.52c-18.48,0-33.52-15.04-33.52-33.52
			S123.25,181.92,141.73,181.92 M141.73,181.42c-18.79,0-34.02,15.23-34.02,34.02s15.23,34.02,34.02,34.02s34.02-15.23,34.02-34.02
			S160.52,181.42,141.73,181.42L141.73,181.42z"/>
	</g>
	<g class="st1">
		<path class="st2" d="M215.43,181.92c18.48,0,33.52,15.04,33.52,33.52s-15.04,33.52-33.52,33.52c-18.48,0-33.52-15.04-33.52-33.52
			S196.95,181.92,215.43,181.92 M215.43,181.42c-18.79,0-34.02,15.23-34.02,34.02s15.23,34.02,34.02,34.02s34.02-15.23,34.02-34.02
			S234.22,181.42,215.43,181.42L215.43,181.42z"/>
	</g>
	<g class="st1">
		<path class="st2" d="M289.13,181.92c18.48,0,33.52,15.04,33.52,33.52s-15.04,33.52-33.52,33.52c-18.48,0-33.52-15.04-33.52-33.52
			S270.65,181.92,289.13,181.92 M289.13,181.42c-18.79,0-34.02,15.23-34.02,34.02s15.23,34.02,34.02,34.02s34.02-15.23,34.02-34.02
			S307.92,181.42,289.13,181.42L289.13,181.42z"/>
	</g>
	<g class="st1">
		<path class="st2" d="M362.83,181.92c18.48,0,33.52,15.04,33.52,33.52s-15.04,33.52-33.52,33.52c-18.48,0-33.52-15.04-33.52-33.52
			S344.35,181.92,362.83,181.92 M362.83,181.42c-18.79,0-34.02,15.23-34.02,34.02s15.23,34.02,34.02,34.02s34.02-15.23,34.02-34.02
			S381.62,181.42,362.83,181.42L362.83,181.42z"/>
	</g>
	<g class="st1">
		<path class="st2" d="M436.54,181.92c18.48,0,33.52,15.04,33.52,33.52s-15.04,33.52-33.52,33.52c-18.48,0-33.52-15.04-33.52-33.52
			S418.05,181.92,436.54,181.92 M436.54,181.42c-18.79,0-34.02,15.23-34.02,34.02s15.23,34.02,34.02,34.02s34.02-15.23,34.02-34.02
			S455.32,181.42,436.54,181.42L436.54,181.42z"/>
	</g>
	<g class="st1">
		<path class="st2" d="M68.03,255.62c18.48,0,33.52,15.04,33.52,33.52s-15.04,33.52-33.52,33.52c-18.48,0-33.52-15.04-33.52-33.52
			S49.55,255.62,68.03,255.62 M68.03,255.12c-18.79,0-34.02,15.23-34.02,34.02s15.23,34.02,34.02,34.02s34.02-15.23,34.02-34.02
			S86.82,255.12,68.03,255.12L68.03,255.12z"/>
	</g>
	<g class="st1">
		<path class="st2" d="M141.73,255.62c18.48,0,33.52,15.04,33.52,33.52s-15.04,33.52-33.52,33.52c-18.48,0-33.52-15.04-33.52-33.52
			S123.25,255.62,141.73,255.62 M141.73,255.12c-18.79,0-34.02,15.23-34.02,34.02s15.23,34.02,34.02,34.02s34.02-15.23,34.02-34.02
			S160.52,255.12,141.73,255.12L141.73,255.12z"/>
	</g>
	<g class="st1">
		<path class="st2" d="M215.43,255.62c18.48,0,33.52,15.04,33.52,33.52s-15.04,33.52-33.52,33.52c-18.48,0-33.52-15.04-33.52-33.52
			S196.95,255.62,215.43,255.62 M215.43,255.12c-18.79,0-34.02,15.23-34.02,34.02s15.23,34.02,34.02,34.02s34.02-15.23,34.02-34.02
			S234.22,255.12,215.43,255.12L215.43,255.12z"/>
	</g>
	<g class="st1">
		<path class="st2" d="M289.13,255.62c18.48,0,33.52,15.04,33.52,33.52s-15.04,33.52-33.52,33.52c-18.48,0-33.52-15.04-33.52-33.52
			S270.65,255.62,289.13,255.62 M289.13,255.12c-18.79,0-34.02,15.23-34.02,34.02s15.23,34.02,34.02,34.02s34.02-15.23,34.02-34.02
			S307.92,255.12,289.13,255.12L289.13,255.12z"/>
	</g>
	<g class="st1">
		<path class="st2" d="M362.83,255.62c18.48,0,33.52,15.04,33.52,33.52s-15.04,33.52-33.52,33.52c-18.48,0-33.52-15.04-33.52-33.52
			S344.35,255.62,362.83,255.62 M362.83,255.12c-18.79,0-34.02,15.23-34.02,34.02s15.23,34.02,34.02,34.02s34.02-15.23,34.02-34.02
			S381.62,255.12,362.83,255.12L362.83,255.12z"/>
	</g>
	<g class="st1">
		<path class="st2" d="M436.54,255.62c18.48,0,33.52,15.04,33.52,33.52s-15.04,33.52-33.52,33.52c-18.48,0-33.52-15.04-33.52-33.52
			S418.05,255.62,436.54,255.62 M436.54,255.12c-18.79,0-34.02,15.23-34.02,34.02s15.23,34.02,34.02,34.02s34.02-15.23,34.02-34.02
			S455.32,255.12,436.54,255.12L436.54,255.12z"/>
	</g>
	<g class="st1">
		<path class="st2" d="M68.03,329.32c18.48,0,33.52,15.04,33.52,33.52s-15.04,33.52-33.52,33.52c-18.48,0-33.52-15.04-33.52-33.52
			S49.55,329.32,68.03,329.32 M68.03,328.82c-18.79,0-34.02,15.23-34.02,34.02s15.23,34.02,34.02,34.02s34.02-15.23,34.02-34.02
			S86.82,328.82,68.03,328.82L68.03,328.82z"/>
	</g>
	<g class="st1">
		<path class="st2" d="M141.73,329.32c18.48,0,33.52,15.04,33.52,33.52s-15.04,33.52-33.52,33.52c-18.48,0-33.52-15.04-33.52-33.52
			S123.25,329.32,141.73,329.32 M141.73,328.82c-18.79,0-34.02,15.23-34.02,34.02s15.23,34.02,34.02,34.02s34.02-15.23,34.02-34.02
			S160.52,328.82,141.73,328.82L141.73,328.82z"/>
	</g>
	<g class="st1">
		<path class="st2" d="M215.43,329.32c18.48,0,33.52,15.04,33.52,33.52s-15.04,33.52-33.52,33.52c-18.48,0-33.52-15.04-33.52-33.52
			S196.95,329.32,215.43,329.32 M215.43,328.82c-18.79,0-34.02,15.23-34.02,34.02s15.23,34.02,34.02,34.02s34.02-15.23,34.02-34.02
			S234.22,328.82,215.43,328.82L215.43,328.82z"/>
	</g>
	<g class="st1">
		<path class="st2" d="M289.13,329.32c18.48,0,33.52,15.04,33.52,33.52s-15.04,33.52-33.52,33.52c-18.48,0-33.52-15.04-33.52-33.52
			S270.65,329.32,289.13,329.32 M289.13,328.82c-18.79,0-34.02,15.23-34.02,34.02s15.23,34.02,34.02,34.02s34.02-15.23,34.02-34.02
			S307.92,328.82,289.13,328.82L289.13,328.82z"/>
	</g>
	<g class="st1">
		<path class="st2" d="M362.83,329.32c18.48,0,33.52,15.04,33.52,33.52s-15.04,33.52-33.52,33.52c-18.48,0-33.52-15.04-33.52-33.52
			S344.35,329.32,362.83,329.32 M362.83,328.82c-18.79,0-34.02,15.23-34.02,34.02s15.23,34.02,34.02,34.02s34.02-15.23,34.02-34.02
			S381.62,328.82,362.83,328.82L362.83,328.82z"/>
	</g>
	<g class="st1">
		<path class="st2" d="M436.54,329.32c18.48,0,33.52,15.04,33.52,33.52s-15.04,33.52-33.52,33.52c-18.48,0-33.52-15.04-33.52-33.52
			S418.05,329.32,436.54,329.32 M436.54,328.82c-18.79,0-34.02,15.23-34.02,34.02s15.23,34.02,34.02,34.02s34.02-15.23,34.02-34.02
			S455.32,328.82,436.54,328.82L436.54,328.82z"/>
	</g>
	<g class="st1">
		<path class="st2" d="M68.03,403.02c18.48,0,33.52,15.04,33.52,33.52s-15.04,33.52-33.52,33.52c-18.48,0-33.52-15.04-33.52-33.52
			S49.55,403.02,68.03,403.02 M68.03,402.52c-18.79,0-34.02,15.23-34.02,34.02s15.23,34.02,34.02,34.02s34.02-15.23,34.02-34.02
			S86.82,402.52,68.03,402.52L68.03,402.52z"/>
	</g>
	<g class="st1">
		<path class="st2" d="M141.73,403.02c18.48,0,33.52,15.04,33.52,33.52s-15.04,33.52-33.52,33.52c-18.48,0-33.52-15.04-33.52-33.52
			S123.25,403.02,141.73,403.02 M141.73,402.52c-18.79,0-34.02,15.23-34.02,34.02s15.23,34.02,34.02,34.02s34.02-15.23,34.02-34.02
			S160.52,402.52,141.73,402.52L141.73,402.52z"/>
	</g>
	<g class="st1">
		<path class="st2" d="M215.43,403.02c18.48,0,33.52,15.04,33.52,33.52s-15.04,33.52-33.52,33.52c-18.48,0-33.52-15.04-33.52-33.52
			S196.95,403.02,215.43,403.02 M215.43,402.52c-18.79,0-34.02,15.23-34.02,34.02s15.23,34.02,34.02,34.02s34.02-15.23,34.02-34.02
			S234.22,402.52,215.43,402.52L215.43,402.52z"/>
	</g>
	<g class="st1">
		<path class="st2" d="M289.13,403.02c18.48,0,33.52,15.04,33.52,33.52s-15.04,33.52-33.52,33.52c-18.48,0-33.52-15.04-33.52-33.52
			S270.65,403.02,289.13,403.02 M289.13,402.52c-18.79,0-34.02,15.23-34.02,34.02s15.23,34.02,34.02,34.02s34.02-15.23,34.02-34.02
			S307.92,402.52,289.13,402.52L289.13,402.52z"/>
	</g>
	<g class="st1">
		<path class="st2" d="M362.83,403.02c18.48,0,33.52,15.04,33.52,33.52s-15.04,33.52-33.52,33.52c-18.48,0-33.52-15.04-33.52-33.52
			S344.35,403.02,362.83,403.02 M362.83,402.52c-18.79,0-34.02,15.23-34.02,34.02s15.23,34.02,34.02,34.02s34.02-15.23,34.02-34.02
			S381.62,402.52,362.83,402.52L362.83,402.52z"/>
	</g>
	<g class="st1">
		<path class="st2" d="M436.54,403.02c18.48,0,33.52,15.04,33.52,33.52s-15.04,33.52-33.52,33.52c-18.48,0-33.52-15.04-33.52-33.52
			S418.05,403.02,436.54,403.02 M436.54,402.52c-18.79,0-34.02,15.23-34.02,34.02s15.23,34.02,34.02,34.02s34.02-15.23,34.02-34.02
			S455.32,402.52,436.54,402.52L436.54,402.52z"/>
	</g>
	<g id="Cercles_1_" class="st1">
		<g>
			<path class="st2" d="M68.03,34.52c18.48,0,33.52,15.04,33.52,33.52s-15.04,33.52-33.52,33.52c-18.48,0-33.52-15.04-33.52-33.52
				S49.55,34.52,68.03,34.52 M68.03,34.02c-18.79,0-34.02,15.23-34.02,34.02s15.23,34.02,34.02,34.02s34.02-15.23,34.02-34.02
				S86.82,34.02,68.03,34.02L68.03,34.02z"/>
		</g>
		<g>
			<path class="st2" d="M178.58,34.52c18.48,0,33.52,15.04,33.52,33.52s-15.04,33.52-33.52,33.52c-18.48,0-33.52-15.04-33.52-33.52
				S160.1,34.52,178.58,34.52 M178.58,34.02c-18.79,0-34.02,15.23-34.02,34.02s15.23,34.02,34.02,34.02s34.02-15.23,34.02-34.02
				S197.37,34.02,178.58,34.02L178.58,34.02z"/>
		</g>
		<g>
			<path class="st2" d="M215.43,34.52c18.48,0,33.52,15.04,33.52,33.52s-15.04,33.52-33.52,33.52c-18.48,0-33.52-15.04-33.52-33.52
				S196.95,34.52,215.43,34.52 M215.43,34.02c-18.79,0-34.02,15.23-34.02,34.02s15.23,34.02,34.02,34.02s34.02-15.23,34.02-34.02
				S234.22,34.02,215.43,34.02L215.43,34.02z"/>
		</g>
		<g>
			<path class="st2" d="M289.13,34.52c18.48,0,33.52,15.04,33.52,33.52s-15.04,33.52-33.52,33.52c-18.48,0-33.52-15.04-33.52-33.52
				S270.65,34.52,289.13,34.52 M289.13,34.02c-18.79,0-34.02,15.23-34.02,34.02s15.23,34.02,34.02,34.02s34.02-15.23,34.02-34.02
				S307.92,34.02,289.13,34.02L289.13,34.02z"/>
		</g>
		<g>
			<path class="st2" d="M362.83,34.52c18.48,0,33.52,15.04,33.52,33.52s-15.04,33.52-33.52,33.52c-18.48,0-33.52-15.04-33.52-33.52
				S344.35,34.52,362.83,34.52 M362.83,34.02c-18.79,0-34.02,15.23-34.02,34.02s15.23,34.02,34.02,34.02s34.02-15.23,34.02-34.02
				S381.62,34.02,362.83,34.02L362.83,34.02z"/>
		</g>
		<g>
			<path class="st2" d="M436.54,34.52c18.48,0,33.52,15.04,33.52,33.52s-15.04,33.52-33.52,33.52c-18.48,0-33.52-15.04-33.52-33.52
				S418.05,34.52,436.54,34.52 M436.54,34.02c-18.79,0-34.02,15.23-34.02,34.02s15.23,34.02,34.02,34.02s34.02-15.23,34.02-34.02
				S455.32,34.02,436.54,34.02L436.54,34.02z"/>
		</g>
		<g>
			<path class="st2" d="M68.03,108.22c18.48,0,33.52,15.04,33.52,33.52s-15.04,33.52-33.52,33.52c-18.48,0-33.52-15.04-33.52-33.52
				S49.55,108.22,68.03,108.22 M68.03,107.72c-18.79,0-34.02,15.23-34.02,34.02s15.23,34.02,34.02,34.02s34.02-15.23,34.02-34.02
				S86.82,107.72,68.03,107.72L68.03,107.72z"/>
		</g>
		<g>
			<path class="st2" d="M141.73,108.22c18.48,0,33.52,15.04,33.52,33.52s-15.04,33.52-33.52,33.52c-18.48,0-33.52-15.04-33.52-33.52
				S123.25,108.22,141.73,108.22 M141.73,107.72c-18.79,0-34.02,15.23-34.02,34.02s15.23,34.02,34.02,34.02s34.02-15.23,34.02-34.02
				S160.52,107.72,141.73,107.72L141.73,107.72z"/>
		</g>
		<g>
			<path class="st2" d="M215.43,108.22c18.48,0,33.52,15.04,33.52,33.52s-15.04,33.52-33.52,33.52c-18.48,0-33.52-15.04-33.52-33.52
				S196.95,108.22,215.43,108.22 M215.43,107.72c-18.79,0-34.02,15.23-34.02,34.02s15.23,34.02,34.02,34.02s34.02-15.23,34.02-34.02
				S234.22,107.72,215.43,107.72L215.43,107.72z"/>
		</g>
		<g>
			<path class="st2" d="M289.13,108.22c18.48,0,33.52,15.04,33.52,33.52s-15.04,33.52-33.52,33.52c-18.48,0-33.52-15.04-33.52-33.52
				S270.65,108.22,289.13,108.22 M289.13,107.72c-18.79,0-34.02,15.23-34.02,34.02s15.23,34.02,34.02,34.02s34.02-15.23,34.02-34.02
				S307.92,107.72,289.13,107.72L289.13,107.72z"/>
		</g>
		<g>
			<path class="st2" d="M362.83,108.22c18.48,0,33.52,15.04,33.52,33.52s-15.04,33.52-33.52,33.52c-18.48,0-33.52-15.04-33.52-33.52
				S344.35,108.22,362.83,108.22 M362.83,107.72c-18.79,0-34.02,15.23-34.02,34.02s15.23,34.02,34.02,34.02s34.02-15.23,34.02-34.02
				S381.62,107.72,362.83,107.72L362.83,107.72z"/>
		</g>
		<g>
			<path class="st2" d="M436.54,108.22c18.48,0,33.52,15.04,33.52,33.52s-15.04,33.52-33.52,33.52c-18.48,0-33.52-15.04-33.52-33.52
				S418.05,108.22,436.54,108.22 M436.54,107.72c-18.79,0-34.02,15.23-34.02,34.02s15.23,34.02,34.02,34.02s34.02-15.23,34.02-34.02
				S455.32,107.72,436.54,107.72L436.54,107.72z"/>
		</g>
		<g>
			<path class="st2" d="M68.03,181.92c18.48,0,33.52,15.04,33.52,33.52s-15.04,33.52-33.52,33.52c-18.48,0-33.52-15.04-33.52-33.52
				S49.55,181.92,68.03,181.92 M68.03,181.42c-18.79,0-34.02,15.23-34.02,34.02s15.23,34.02,34.02,34.02s34.02-15.23,34.02-34.02
				S86.82,181.42,68.03,181.42L68.03,181.42z"/>
		</g>
		<g>
			<path class="st2" d="M141.73,181.92c18.48,0,33.52,15.04,33.52,33.52s-15.04,33.52-33.52,33.52c-18.48,0-33.52-15.04-33.52-33.52
				S123.25,181.92,141.73,181.92 M141.73,181.42c-18.79,0-34.02,15.23-34.02,34.02s15.23,34.02,34.02,34.02s34.02-15.23,34.02-34.02
				S160.52,181.42,141.73,181.42L141.73,181.42z"/>
		</g>
		<g>
			<path class="st2" d="M215.43,181.92c18.48,0,33.52,15.04,33.52,33.52s-15.04,33.52-33.52,33.52c-18.48,0-33.52-15.04-33.52-33.52
				S196.95,181.92,215.43,181.92 M215.43,181.42c-18.79,0-34.02,15.23-34.02,34.02s15.23,34.02,34.02,34.02s34.02-15.23,34.02-34.02
				S234.22,181.42,215.43,181.42L215.43,181.42z"/>
		</g>
		<g>
			<path class="st2" d="M289.13,181.92c18.48,0,33.52,15.04,33.52,33.52s-15.04,33.52-33.52,33.52c-18.48,0-33.52-15.04-33.52-33.52
				S270.65,181.92,289.13,181.92 M289.13,181.42c-18.79,0-34.02,15.23-34.02,34.02s15.23,34.02,34.02,34.02s34.02-15.23,34.02-34.02
				S307.92,181.42,289.13,181.42L289.13,181.42z"/>
		</g>
		<g>
			<path class="st2" d="M362.83,181.92c18.48,0,33.52,15.04,33.52,33.52s-15.04,33.52-33.52,33.52c-18.48,0-33.52-15.04-33.52-33.52
				S344.35,181.92,362.83,181.92 M362.83,181.42c-18.79,0-34.02,15.23-34.02,34.02s15.23,34.02,34.02,34.02s34.02-15.23,34.02-34.02
				S381.62,181.42,362.83,181.42L362.83,181.42z"/>
		</g>
		<g>
			<path class="st2" d="M436.54,181.92c18.48,0,33.52,15.04,33.52,33.52s-15.04,33.52-33.52,33.52c-18.48,0-33.52-15.04-33.52-33.52
				S418.05,181.92,436.54,181.92 M436.54,181.42c-18.79,0-34.02,15.23-34.02,34.02s15.23,34.02,34.02,34.02s34.02-15.23,34.02-34.02
				S455.32,181.42,436.54,181.42L436.54,181.42z"/>
		</g>
		<g>
			<path class="st2" d="M68.03,255.62c18.48,0,33.52,15.04,33.52,33.52s-15.04,33.52-33.52,33.52c-18.48,0-33.52-15.04-33.52-33.52
				S49.55,255.62,68.03,255.62 M68.03,255.12c-18.79,0-34.02,15.23-34.02,34.02s15.23,34.02,34.02,34.02s34.02-15.23,34.02-34.02
				S86.82,255.12,68.03,255.12L68.03,255.12z"/>
		</g>
		<g>
			<path class="st2" d="M141.73,255.62c18.48,0,33.52,15.04,33.52,33.52s-15.04,33.52-33.52,33.52c-18.48,0-33.52-15.04-33.52-33.52
				S123.25,255.62,141.73,255.62 M141.73,255.12c-18.79,0-34.02,15.23-34.02,34.02s15.23,34.02,34.02,34.02s34.02-15.23,34.02-34.02
				S160.52,255.12,141.73,255.12L141.73,255.12z"/>
		</g>
		<g>
			<path class="st2" d="M215.43,255.62c18.48,0,33.52,15.04,33.52,33.52s-15.04,33.52-33.52,33.52c-18.48,0-33.52-15.04-33.52-33.52
				S196.95,255.62,215.43,255.62 M215.43,255.12c-18.79,0-34.02,15.23-34.02,34.02s15.23,34.02,34.02,34.02s34.02-15.23,34.02-34.02
				S234.22,255.12,215.43,255.12L215.43,255.12z"/>
		</g>
		<g>
			<path class="st2" d="M289.13,255.62c18.48,0,33.52,15.04,33.52,33.52s-15.04,33.52-33.52,33.52c-18.48,0-33.52-15.04-33.52-33.52
				S270.65,255.62,289.13,255.62 M289.13,255.12c-18.79,0-34.02,15.23-34.02,34.02s15.23,34.02,34.02,34.02s34.02-15.23,34.02-34.02
				S307.92,255.12,289.13,255.12L289.13,255.12z"/>
		</g>
		<g>
			<path class="st2" d="M362.83,255.62c18.48,0,33.52,15.04,33.52,33.52s-15.04,33.52-33.52,33.52c-18.48,0-33.52-15.04-33.52-33.52
				S344.35,255.62,362.83,255.62 M362.83,255.12c-18.79,0-34.02,15.23-34.02,34.02s15.23,34.02,34.02,34.02s34.02-15.23,34.02-34.02
				S381.62,255.12,362.83,255.12L362.83,255.12z"/>
		</g>
		<g>
			<path class="st2" d="M436.54,255.62c18.48,0,33.52,15.04,33.52,33.52s-15.04,33.52-33.52,33.52c-18.48,0-33.52-15.04-33.52-33.52
				S418.05,255.62,436.54,255.62 M436.54,255.12c-18.79,0-34.02,15.23-34.02,34.02s15.23,34.02,34.02,34.02s34.02-15.23,34.02-34.02
				S455.32,255.12,436.54,255.12L436.54,255.12z"/>
		</g>
		<g>
			<path class="st2" d="M68.03,329.32c18.48,0,33.52,15.04,33.52,33.52s-15.04,33.52-33.52,33.52c-18.48,0-33.52-15.04-33.52-33.52
				S49.55,329.32,68.03,329.32 M68.03,328.82c-18.79,0-34.02,15.23-34.02,34.02s15.23,34.02,34.02,34.02s34.02-15.23,34.02-34.02
				S86.82,328.82,68.03,328.82L68.03,328.82z"/>
		</g>
		<g>
			<path class="st2" d="M141.73,329.32c18.48,0,33.52,15.04,33.52,33.52s-15.04,33.52-33.52,33.52c-18.48,0-33.52-15.04-33.52-33.52
				S123.25,329.32,141.73,329.32 M141.73,328.82c-18.79,0-34.02,15.23-34.02,34.02s15.23,34.02,34.02,34.02s34.02-15.23,34.02-34.02
				S160.52,328.82,141.73,328.82L141.73,328.82z"/>
		</g>
		<g>
			<path class="st2" d="M215.43,329.32c18.48,0,33.52,15.04,33.52,33.52s-15.04,33.52-33.52,33.52c-18.48,0-33.52-15.04-33.52-33.52
				S196.95,329.32,215.43,329.32 M215.43,328.82c-18.79,0-34.02,15.23-34.02,34.02s15.23,34.02,34.02,34.02s34.02-15.23,34.02-34.02
				S234.22,328.82,215.43,328.82L215.43,328.82z"/>
		</g>
		<g>
			<path class="st2" d="M289.13,329.32c18.48,0,33.52,15.04,33.52,33.52s-15.04,33.52-33.52,33.52c-18.48,0-33.52-15.04-33.52-33.52
				S270.65,329.32,289.13,329.32 M289.13,328.82c-18.79,0-34.02,15.23-34.02,34.02s15.23,34.02,34.02,34.02s34.02-15.23,34.02-34.02
				S307.92,328.82,289.13,328.82L289.13,328.82z"/>
		</g>
		<g>
			<path class="st2" d="M362.83,329.32c18.48,0,33.52,15.04,33.52,33.52s-15.04,33.52-33.52,33.52c-18.48,0-33.52-15.04-33.52-33.52
				S344.35,329.32,362.83,329.32 M362.83,328.82c-18.79,0-34.02,15.23-34.02,34.02s15.23,34.02,34.02,34.02s34.02-15.23,34.02-34.02
				S381.62,328.82,362.83,328.82L362.83,328.82z"/>
		</g>
		<g>
			<path class="st2" d="M436.54,329.32c18.48,0,33.52,15.04,33.52,33.52s-15.04,33.52-33.52,33.52c-18.48,0-33.52-15.04-33.52-33.52
				S418.05,329.32,436.54,329.32 M436.54,328.82c-18.79,0-34.02,15.23-34.02,34.02s15.23,34.02,34.02,34.02s34.02-15.23,34.02-34.02
				S455.32,328.82,436.54,328.82L436.54,328.82z"/>
		</g>
	</g>
</g>
<g id="Tracé_x5F_Pumptrack">
	<g id="Tracé_x5F_Pumptrack_x5F_02_2_" class="st3">
		<path class="st4" d="M436.54,34.02c18.79,0,34.02,15.23,34.02,34.02l0,73.7c0,18.79-15.23,34.02-34.02,34.02h-73.7
			c-21.92,0-39.69,17.77-39.69,39.68v73.7c0,18.79-15.23,34.02-34.02,34.02h-73.7c-18.79,0-34.02-15.23-34.02-34.02v-73.7
			c0-18.79,15.23-34.02,34.02-34.02h73.7c21.92,0,39.69-17.77,39.69-39.68v0c0-21.92-17.77-39.68-39.69-39.68H68.03
			c-18.79,0-34.02-15.23-34.02-34.02v0c0-18.79,15.23-34.02,34.02-34.02H436.54 M436.54,28.35H68.03
			c-21.88,0-39.69,17.8-39.69,39.68c0,21.88,17.8,39.69,39.69,39.69h221.1c18.76,0,34.02,15.26,34.02,34.02
			c0,18.76-15.26,34.02-34.02,34.02h-73.7c-21.88,0-39.68,17.8-39.68,39.68v73.7c0,21.88,17.8,39.68,39.68,39.68h73.7
			c21.88,0,39.68-17.8,39.68-39.68v-73.7c0-18.76,15.26-34.02,34.02-34.02h73.7c10.6,0,20.57-4.13,28.06-11.62
			c7.5-7.5,11.62-17.46,11.62-28.06l0-73.7C476.22,46.15,458.42,28.35,436.54,28.35L436.54,28.35z"/>
	</g>
</g>
<g id="Calque_5">
	<g id="Virages" class="st5">
		<path id="Virage_x5F_Boucle_x5F_01" class="st4" d="M18.14,68.03h10.2v0c0-21.92,17.77-39.68,39.68-39.68h0v-10.2h0
			C40.48,18.14,18.14,40.48,18.14,68.03L18.14,68.03z"/>
		<path id="Virage_x5F_Boucle_x5F_01_1_" class="st4" d="M68.03,117.92v-10.2h0c-21.92,0-39.68-17.77-39.68-39.68v0h-10.2v0
			C18.14,95.58,40.48,117.92,68.03,117.92L68.03,117.92z"/>
		<path id="Virage_x5F_Boucle_x5F_01_3_" class="st4" d="M228.47,68.03h-10.2v0c0,21.92-17.77,39.68-39.68,39.68h0v10.2h0
			C206.14,117.92,228.47,95.58,228.47,68.03L228.47,68.03z"/>
		<path id="Virage_x5F_Boucle_x5F_01_2_" class="st4" d="M178.58,18.14v10.2h0c21.92,0,39.68,17.77,39.68,39.68v0h10.2v0
			C228.47,40.48,206.14,18.14,178.58,18.14L178.58,18.14z"/>
	</g>
	<g id="Ligne-de-Bosse" class="st3">
		<path id="Ligne-de_x5F_Bosse_x5F_Virage_x5F_01" class="st4" d="M68.03,28.35L68.03,28.35c-21.92,0-39.69,17.77-39.69,39.68v0
			h5.67v0c0-18.79,15.23-34.02,34.01-34.02h0L68.03,28.35z"/>
		<path id="Ligne-de_x5F_Bosse_x5F_Virage_x5F_01_1_" class="st4" d="M28.35,68.03L28.35,68.03c0,21.92,17.77,39.69,39.68,39.69h0
			v-5.67h0c-18.79,0-34.02-15.23-34.02-34.01v0L28.35,68.03z"/>
		<path id="Ligne-de_x5F_Bosse_x5F_Virage_x5F_01_3_" class="st4" d="M178.58,107.72L178.58,107.72c21.92,0,39.69-17.77,39.69-39.68
			v0h-5.67v0c0,18.79-15.23,34.02-34.01,34.02h0L178.58,107.72z"/>
		<path id="Ligne-de_x5F_Bosse_x5F_Virage_x5F_01_2_" class="st4" d="M218.27,68.03L218.27,68.03c0-21.92-17.77-39.69-39.68-39.69h0
			v5.67h0c18.79,0,34.02,15.23,34.02,34.01v0L218.27,68.03z"/>
		<rect x="69.17" y="28.35" class="st4" width="35.15" height="5.67"/>
		<rect x="105.45" y="28.35" class="st4" width="35.72" height="5.67"/>
		<rect x="142.3" y="28.35" class="st4" width="35.15" height="5.67"/>
		<rect x="69.17" y="102.05" class="st4" width="35.15" height="5.67"/>
		<rect x="105.45" y="102.05" class="st4" width="35.72" height="5.67"/>
		<rect x="142.3" y="102.05" class="st4" width="35.15" height="5.67"/>
	</g>
	<g id="Cale_x5F_défonce">
		<rect x="17.57" y="67.46" class="st6" width="19.28" height="1.13"/>
		<rect x="209.76" y="67.46" class="st6" width="19.28" height="1.13"/>
	</g>
	<g id="Ligne-de-Zone">
		<path class="st4" d="M178.58,18.14"/>
		<rect x="105.45" y="17.01" class="st4" width="35.72" height="1.13"/>
		<path class="st4" d="M68.03,119.06h36.28v-1.13c0,0-36.28,0-36.28,0c-27.55,0-49.89-22.34-49.89-49.89v0
			c0-27.55,22.34-49.89,49.89-49.89h36.28v-1.13c0,0-36.28,0-36.28,0c-28.18,0-51.02,22.84-51.02,51.02c0,0,0,0,0,0
			C17.01,96.21,39.85,119.06,68.03,119.06C68.03,119.06,68.03,119.06,68.03,119.06z"/>
		<rect x="105.45" y="117.92" class="st4" width="35.72" height="1.13"/>
	</g>
	<g id="Logotype_1_">
		<path class="st4" d="M60.4,67.18c-2.15,0-3.48-1.49-3.48-3.62c0-2.23,1.36-3.68,3.47-3.68c1.5,0,2.72,0.61,3.13,2.46
			c0.01,0.06-0.04,0.12-0.1,0.12h-1.25c-0.07,0-0.13-0.05-0.15-0.12c-0.2-0.82-0.75-1.29-1.65-1.29c-1.22,0-1.88,0.94-1.88,2.5
			s0.68,2.46,1.87,2.46c0.97,0,1.5-0.52,1.69-1.45c0.01-0.07,0.07-0.12,0.14-0.12h1.28c0.06,0,0.11,0.06,0.1,0.12
			C63.17,66.45,62.04,67.18,60.4,67.18z"/>
		<path class="st4" d="M67.43,67.18c-2.04,0-3.45-1.48-3.45-3.65c0-2.21,1.36-3.65,3.43-3.65c1.72,0,2.83,0.84,3.21,2.3
			c0.02,0.06-0.03,0.12-0.09,0.12H69.2c-0.07,0-0.13-0.05-0.15-0.12c-0.23-0.75-0.78-1.15-1.63-1.15c-1.22,0-1.87,0.97-1.87,2.52
			c0,1.52,0.69,2.48,1.93,2.48c1,0,1.63-0.61,1.67-1.69h-1.71c-0.06,0-0.12-0.06-0.12-0.12v-0.86c0-0.06,0.06-0.12,0.12-0.12h3.22
			c0.06,0,0.12,0.06,0.12,0.12C70.79,65.93,69.58,67.18,67.43,67.18z"/>
		<path class="st4" d="M86.76,67.18c-2.15,0-3.48-1.49-3.48-3.62c0-2.23,1.36-3.68,3.47-3.68c1.5,0,2.72,0.61,3.13,2.46
			c0.01,0.06-0.04,0.12-0.1,0.12h-1.25c-0.07,0-0.13-0.05-0.15-0.12c-0.2-0.82-0.75-1.29-1.65-1.29c-1.22,0-1.88,0.94-1.88,2.5
			s0.68,2.46,1.87,2.46c0.97,0,1.5-0.52,1.69-1.45c0.01-0.07,0.07-0.12,0.14-0.12h1.28c0.06,0,0.11,0.06,0.1,0.12
			C89.53,66.45,88.4,67.18,86.76,67.18z"/>
		<path class="st4" d="M93.87,67.18c-2.14,0-3.53-1.49-3.53-3.63c0-2.23,1.38-3.67,3.53-3.67c2.13,0,3.54,1.41,3.54,3.67
			C97.41,65.69,96.01,67.18,93.87,67.18z M93.88,66.01c1.26,0,1.96-0.93,1.96-2.46s-0.69-2.5-1.97-2.5s-1.96,0.94-1.96,2.5
			C91.91,65.07,92.62,66.01,93.88,66.01z"/>
		<path class="st4" d="M99.51,64.44v2.47c0,0.06-0.06,0.12-0.12,0.12h-1.2c-0.06,0-0.12-0.06-0.12-0.12l0.06-3.38l-0.06-3.38
			c0-0.06,0.06-0.12,0.12-0.12h1.62c0.07,0,0.14,0.04,0.18,0.1l2.78,4.93v-0.12l-0.05-1.98v-2.81c0-0.06,0.06-0.12,0.12-0.12h1.2
			c0.06,0,0.12,0.06,0.12,0.12l-0.06,3.38l0.06,3.38c0,0.06-0.06,0.12-0.12,0.12h-1.68c-0.07,0-0.14-0.04-0.18-0.1l-2.74-4.89
			l0.02,0.4L99.51,64.44z"/>
		<path class="st4" d="M108.3,67.18c-2.15,0-3.48-1.49-3.48-3.62c0-2.23,1.36-3.68,3.47-3.68c1.5,0,2.72,0.61,3.13,2.46
			c0.01,0.06-0.04,0.12-0.1,0.12h-1.25c-0.07,0-0.13-0.05-0.15-0.12c-0.2-0.82-0.75-1.29-1.65-1.29c-1.22,0-1.88,0.94-1.88,2.5
			s0.68,2.46,1.87,2.46c0.97,0,1.5-0.52,1.69-1.45c0.01-0.07,0.07-0.12,0.14-0.12h1.28c0.06,0,0.11,0.06,0.1,0.12
			C111.07,66.45,109.94,67.18,108.3,67.18z"/>
		<path class="st4" d="M112.2,67.03c-0.06,0-0.12-0.06-0.12-0.12l0.07-3.38l-0.07-3.38c0-0.06,0.06-0.12,0.12-0.12h4.67
			c0.06,0,0.12,0.06,0.12,0.12v0.89c0,0.06-0.06,0.12-0.12,0.12h-3.22l-0.06,1.61h2.99c0.06,0,0.12,0.06,0.12,0.12v0.89
			c0,0.06-0.06,0.12-0.12,0.12h-2.99l0.06,2h3.3c0.06,0,0.12,0.06,0.12,0.12v0.89c0,0.06-0.06,0.12-0.12,0.12H112.2z"/>
		<path class="st4" d="M120.49,64.6h-1.2l0.05,2.31c0,0.06-0.06,0.12-0.12,0.12h-1.34c-0.06,0-0.12-0.06-0.12-0.12l0.07-3.38
			l-0.07-3.38c0-0.06,0.06-0.12,0.12-0.12h2.62c1.69,0,2.66,0.76,2.66,2.25C123.16,63.75,122.16,64.6,120.49,64.6z M120.56,61.14
			h-1.24l-0.05,2.35h1.33c0.59,0,1.09-0.34,1.09-1.18C121.69,61.51,121.28,61.14,120.56,61.14z"/>
		<path class="st4" d="M125.35,67.03c-0.06,0-0.12-0.06-0.12-0.12l0.09-3.38l-0.07-2.37h-1.89c-0.06,0-0.12-0.06-0.12-0.12v-0.89
			c0-0.06,0.06-0.12,0.12-0.12h5.36c0.06,0,0.12,0.06,0.12,0.12v0.89c0,0.06-0.06,0.12-0.12,0.12h-1.89l-0.07,2.37l0.09,3.38
			c0,0.06-0.06,0.12-0.12,0.12H125.35z"/>
		<path class="st4" d="M59.85,73.6h-1.2l0.05,2.31c0,0.06-0.06,0.12-0.12,0.12h-1.34c-0.06,0-0.12-0.06-0.12-0.12l0.07-3.38
			l-0.07-3.38c0-0.06,0.06-0.12,0.12-0.12h2.62c1.69,0,2.66,0.76,2.66,2.25C62.52,72.75,61.52,73.6,59.85,73.6z M59.92,70.14h-1.24
			l-0.05,2.35h1.33c0.59,0,1.09-0.34,1.09-1.18C61.05,70.51,60.64,70.14,59.92,70.14z"/>
		<path class="st4" d="M65.94,76.18c-1.86,0-2.85-0.97-2.84-2.75l0.02-1.9l-0.06-2.38c0-0.06,0.06-0.12,0.12-0.12h1.37
			c0.06,0,0.12,0.06,0.12,0.12l-0.05,2.34l0.01,1.93c0,1,0.4,1.55,1.31,1.55c0.98,0,1.41-0.55,1.41-1.55v-1.9l-0.04-2.37
			c0-0.06,0.06-0.12,0.12-0.12h1.22c0.06,0,0.12,0.06,0.12,0.12l-0.04,2.38v1.9C68.73,75.21,67.8,76.18,65.94,76.18z"/>
		<path class="st4" d="M70.94,73.57v2.34c0,0.06-0.06,0.12-0.12,0.12h-1.15c-0.06,0-0.12-0.06-0.12-0.12l0.06-3.38l-0.06-3.38
			c0-0.06,0.06-0.12,0.12-0.12h1.8c0.07,0,0.14,0.05,0.16,0.11l1.86,5.02l1.75-5.02c0.02-0.06,0.09-0.11,0.16-0.11h1.68
			c0.06,0,0.12,0.06,0.12,0.12l-0.06,3.38l0.06,3.38c0,0.06-0.06,0.12-0.12,0.12h-1.3c-0.06,0-0.12-0.06-0.12-0.12v-2.34l0.05-2.15
			l0.01-0.31l-1.7,4.81c-0.02,0.06-0.09,0.11-0.16,0.11H72.9c-0.07,0-0.14-0.05-0.16-0.11l-1.87-5.03l0.02,0.55L70.94,73.57z"/>
		<path class="st4" d="M80.79,73.6h-1.2l0.05,2.31c0,0.06-0.06,0.12-0.12,0.12h-1.34c-0.06,0-0.12-0.06-0.12-0.12l0.07-3.38
			l-0.07-3.38c0-0.06,0.06-0.12,0.12-0.12h2.62c1.69,0,2.66,0.76,2.66,2.25C83.46,72.75,82.46,73.6,80.79,73.6z M80.86,70.14h-1.24
			l-0.05,2.35h1.33c0.59,0,1.09-0.34,1.09-1.18C81.99,70.51,81.58,70.14,80.86,70.14z"/>
		<path class="st4" d="M85.65,76.03c-0.06,0-0.12-0.06-0.12-0.12l0.09-3.38l-0.07-2.37h-1.89c-0.06,0-0.12-0.06-0.12-0.12v-0.89
			c0-0.06,0.06-0.12,0.12-0.12h5.36c0.06,0,0.12,0.06,0.12,0.12v0.89c0,0.06-0.06,0.12-0.12,0.12h-1.89l-0.07,2.37l0.09,3.38
			c0,0.06-0.06,0.12-0.12,0.12H85.65z"/>
		<path class="st4" d="M92.88,74.47l-0.69-1.04h-1.01l0.05,2.48c0,0.06-0.06,0.12-0.12,0.12h-1.33c-0.06,0-0.12-0.06-0.12-0.12
			l0.06-3.38l-0.06-3.38c0-0.06,0.06-0.12,0.12-0.12h2.82c1.75,0,2.76,0.74,2.76,2.2c0,1.03-0.57,1.74-1.56,2.04l1.72,2.66
			c0.03,0.04,0,0.1-0.05,0.1h-1.53c-0.07,0-0.14-0.04-0.18-0.1L92.88,74.47z M92.66,70.14h-1.45l-0.03,2.18h1.52
			c0.64,0,1.19-0.3,1.19-1.06C93.89,70.5,93.44,70.14,92.66,70.14z"/>
		<path class="st4" d="M101.26,76.03c-0.07,0-0.14-0.05-0.16-0.11l-0.53-1.67h-2.62l-0.51,1.67c-0.03,0.06-0.09,0.11-0.16,0.11
			h-1.31c-0.06,0-0.1-0.06-0.08-0.11l2.35-6.78c0.02-0.06,0.09-0.11,0.16-0.11h1.81c0.07,0,0.14,0.05,0.16,0.11l2.3,6.78
			c0.02,0.05-0.02,0.11-0.08,0.11H101.26z M100.19,73.04l-0.96-2.99l-0.91,2.99H100.19z"/>
		<path class="st4" d="M106.07,76.18c-2.15,0-3.48-1.49-3.48-3.62c0-2.23,1.36-3.68,3.47-3.68c1.5,0,2.72,0.61,3.13,2.46
			c0.01,0.06-0.04,0.12-0.1,0.12h-1.25c-0.07,0-0.13-0.05-0.15-0.12c-0.2-0.82-0.75-1.29-1.65-1.29c-1.22,0-1.88,0.94-1.88,2.5
			s0.68,2.46,1.87,2.46c0.97,0,1.5-0.52,1.69-1.45c0.01-0.07,0.07-0.12,0.14-0.12h1.28c0.06,0,0.11,0.06,0.1,0.12
			C108.84,75.45,107.71,76.18,106.07,76.18z"/>
		<path class="st4" d="M113.08,74.76l-1.12-1.69l-0.58,0.72l0.04,2.12c0,0.06-0.06,0.12-0.12,0.12h-1.33
			c-0.06,0-0.12-0.06-0.12-0.12l0.07-3.38l-0.07-3.38c0-0.06,0.06-0.12,0.12-0.12h1.33c0.06,0,0.12,0.06,0.12,0.12l-0.05,2.8
			l2.03-2.82c0.04-0.06,0.12-0.1,0.19-0.1h1.56c0.05,0,0.08,0.05,0.04,0.09l-2.25,2.76l2.8,4.05c0.03,0.04,0,0.1-0.05,0.1h-1.64
			c-0.07,0-0.15-0.04-0.19-0.1L113.08,74.76z"/>
		<path class="st4" d="M131.45,76.19c-1.83,0-3.09-0.76-3.17-2.4c0-0.06,0.06-0.12,0.12-0.12h1.35c0.07,0,0.12,0.05,0.13,0.12
			c0.11,0.76,0.47,1.26,1.6,1.26c0.91,0,1.41-0.27,1.41-0.93c0-1.58-4.47-0.33-4.47-3.11c0-1.31,1.02-2.13,2.81-2.13
			c1.63,0,2.75,0.63,2.97,2.1c0.01,0.06-0.04,0.12-0.1,0.12h-1.35c-0.08,0-0.13-0.05-0.14-0.12c-0.09-0.61-0.6-0.95-1.44-0.95
			c-0.72,0-1.24,0.25-1.24,0.83c0,1.49,4.49,0.28,4.49,3.05C134.42,75.39,133.28,76.19,131.45,76.19z"/>
		<path class="st4" d="M137.73,73.6h-1.2l0.05,2.31c0,0.06-0.06,0.12-0.12,0.12h-1.34c-0.06,0-0.12-0.06-0.12-0.12l0.07-3.38
			L135,69.16c0-0.06,0.06-0.12,0.12-0.12h2.62c1.69,0,2.66,0.76,2.66,2.25C140.4,72.75,139.4,73.6,137.73,73.6z M137.8,70.14h-1.24
			l-0.05,2.35h1.33c0.59,0,1.09-0.34,1.09-1.18C138.93,70.51,138.52,70.14,137.8,70.14z"/>
		<path class="st4" d="M141.14,76.03c-0.06,0-0.12-0.06-0.12-0.12l0.07-3.38l-0.07-3.38c0-0.06,0.06-0.12,0.12-0.12h4.67
			c0.06,0,0.12,0.06,0.12,0.12v0.89c0,0.06-0.06,0.12-0.12,0.12h-3.22l-0.06,1.61h2.99c0.06,0,0.12,0.06,0.12,0.12v0.89
			c0,0.06-0.06,0.12-0.12,0.12h-2.99l0.06,2h3.3c0.06,0,0.12,0.06,0.12,0.12v0.89c0,0.06-0.06,0.12-0.12,0.12H141.14z M142.92,68.54
			c-0.07,0.02-0.14-0.02-0.17-0.08l-0.19-0.48c-0.03-0.06,0-0.13,0.06-0.16l2.33-1.01c0.06-0.03,0.13,0,0.15,0.06l0.28,0.89
			c0.02,0.06-0.01,0.12-0.08,0.14L142.92,68.54z"/>
		<path class="st4" d="M149.78,76.18c-2.15,0-3.48-1.49-3.48-3.62c0-2.23,1.36-3.68,3.47-3.68c1.5,0,2.72,0.61,3.13,2.46
			c0.01,0.06-0.04,0.12-0.1,0.12h-1.25c-0.07,0-0.13-0.05-0.15-0.12c-0.2-0.82-0.75-1.29-1.65-1.29c-1.22,0-1.88,0.94-1.88,2.5
			s0.68,2.46,1.87,2.46c0.97,0,1.5-0.52,1.69-1.45c0.01-0.07,0.07-0.12,0.14-0.12h1.28c0.06,0,0.11,0.06,0.1,0.12
			C152.55,75.45,151.42,76.18,149.78,76.18z"/>
		<path class="st4" d="M153.73,76.03c-0.06,0-0.12-0.06-0.12-0.12l0.07-3.38l-0.07-3.38c0-0.06,0.06-0.12,0.12-0.12h1.32
			c0.06,0,0.12,0.06,0.12,0.12l-0.07,3.38l0.07,3.38c0,0.06-0.06,0.12-0.12,0.12H153.73z"/>
		<path class="st4" d="M161.01,76.03c-0.07,0-0.14-0.05-0.16-0.11l-0.53-1.67h-2.62l-0.51,1.67c-0.03,0.06-0.09,0.11-0.16,0.11
			h-1.31c-0.06,0-0.1-0.06-0.08-0.11l2.35-6.78c0.02-0.06,0.09-0.11,0.16-0.11h1.81c0.07,0,0.14,0.05,0.16,0.11l2.3,6.78
			c0.02,0.05-0.02,0.11-0.08,0.11H161.01z M159.94,73.04l-0.96-2.99l-0.91,2.99H159.94z"/>
		<path class="st4" d="M162.96,76.03c-0.06,0-0.12-0.06-0.12-0.12l0.07-3.38l-0.07-3.38c0-0.06,0.06-0.12,0.12-0.12h1.33
			c0.06,0,0.12,0.06,0.12,0.12l-0.06,3.29l0.06,2.46h2.8c0.06,0,0.12,0.06,0.12,0.12v0.89c0,0.06-0.06,0.12-0.12,0.12H162.96z"/>
		<path class="st4" d="M167.97,76.03c-0.06,0-0.12-0.06-0.12-0.12l0.07-3.38l-0.07-3.38c0-0.06,0.06-0.12,0.12-0.12h1.32
			c0.06,0,0.12,0.06,0.12,0.12l-0.07,3.38l0.07,3.38c0,0.06-0.06,0.12-0.12,0.12H167.97z"/>
		<path class="st4" d="M173.22,76.19c-1.83,0-3.09-0.76-3.17-2.4c0-0.06,0.06-0.12,0.12-0.12h1.35c0.07,0,0.12,0.05,0.13,0.12
			c0.11,0.76,0.47,1.26,1.6,1.26c0.91,0,1.41-0.27,1.41-0.93c0-1.58-4.47-0.33-4.47-3.11c0-1.31,1.02-2.13,2.81-2.13
			c1.63,0,2.75,0.63,2.97,2.1c0.01,0.06-0.04,0.12-0.1,0.12h-1.35c-0.08,0-0.13-0.05-0.14-0.12c-0.09-0.61-0.6-0.95-1.44-0.95
			c-0.72,0-1.24,0.25-1.24,0.83c0,1.49,4.49,0.28,4.49,3.05C176.19,75.39,175.05,76.19,173.22,76.19z"/>
		<path class="st4" d="M178.24,76.03c-0.06,0-0.12-0.06-0.12-0.12l0.09-3.38l-0.07-2.37h-1.89c-0.06,0-0.12-0.06-0.12-0.12v-0.89
			c0-0.06,0.06-0.12,0.12-0.12h5.36c0.06,0,0.12,0.06,0.12,0.12v0.89c0,0.06-0.06,0.12-0.12,0.12h-1.89l-0.07,2.37l0.09,3.38
			c0,0.06-0.06,0.12-0.12,0.12H178.24z"/>
		<path class="st4" d="M182.37,76.03c-0.06,0-0.12-0.06-0.12-0.12l0.07-3.38l-0.07-3.38c0-0.06,0.06-0.12,0.12-0.12h4.67
			c0.06,0,0.12,0.06,0.12,0.12v0.89c0,0.06-0.06,0.12-0.12,0.12h-3.22l-0.06,1.61h2.99c0.06,0,0.12,0.06,0.12,0.12v0.89
			c0,0.06-0.06,0.12-0.12,0.12h-2.99l0.06,2h3.3c0.06,0,0.12,0.06,0.12,0.12v0.89c0,0.06-0.06,0.12-0.12,0.12H182.37z"/>
	</g>
	<path class="st4" d="M178.58,17.01H142.3v1.13c0,0,36.28,0,36.28,0h0c27.55,0,49.89,22.34,49.89,49.89v0
		c0,27.55-22.34,49.89-49.89,49.89c0,0,0,0,0,0H142.3v1.13c0,0,36.28,0,36.28,0h0c28.18,0,51.02-22.84,51.02-51.02v0c0,0,0,0,0,0
		C229.61,39.85,206.76,17.01,178.58,17.01C178.58,17.01,178.58,17.01,178.58,17.01z"/>
</g>
<g id="Repères_x5F_0_x2C_4">
</g>
</svg>
